<?xml version="1.0" encoding="UTF-8"?>
<svg id="Layer_2" xmlns="http://www.w3.org/2000/svg" viewBox="0 0 1220.18 270.76">
  <defs>
    <style>
      .cls-1 {
        fill: #ee262f;
      }

      .cls-1, .cls-2, .cls-3 {
        fill-rule: evenodd;
        stroke: #020203;
        stroke-miterlimit: 10;
      }

      .cls-2 {
        fill: #020203;
      }

      .cls-3 {
        fill: #fff;
      }
    </style>
  </defs>
  <g id="Layer_1-2" data-name="Layer_1">
    <path class="cls-3" d="M939.66,87.04l6,75,2-1c15.67-24.66,31.33-49.34,47-74h200c-17.33,60.66-34.67,121.34-52,182h-119v-1c13.33-46.66,26.67-93.34,40-140l-2-1c-33.66,47.33-67.34,94.67-101,142h-90c-6.33-47-12.67-94-19-141l-3-1h-1c-13.67,47.33-27.33,94.67-41,142h-119c3.67-13,7.33-26,11-39h-4c-34.08,40.49-111.37,38.99-186,39-32.67,0-58.93,2.42-83-7-23.6-9.24-44.06-27.9-57-48l-3,3-23,19c-15.34,11.65-36.68,22.27-57,28-28.34,7.99-65.58,6-101,6-61.33-.33-122.67-.67-184-1,17.33-60.66,34.67-121.34,52-182h132v1l-32,112h23l46-4c55.34-16.86,48.92-53.13,64-109,101.49-.6,220.08-2.21,302,13,58.06,10.78,106.52,10.07,133,51l2-1,18-63h199Z"/>
    <path class="cls-1" d="M81.66,1.59l206,1,51,3c33.36,8.37,49.28,25.57,72,43,18.11-11.15,31.74-27.34,55-35,54.1-17.81,174.1-17.09,230,0,28.6,8.74,37.87,26.62,58,37l14-48h167c1.89,19.92,7.99,49.88,3,69l-320-1c-6.98-5.14-9.17-14.33-18-18-33.31-13.84-47.86,12.85-66,19h-63c-136.32-.33-272.68-.67-409-1v-5c6.67-21.33,13.33-42.67,20-64Z"/>
    <path class="cls-1" d="M1219.66,1.59c-.78,22.81-11.09,49.53-19,69l-140,1c-11.62,0-40.95,4.15-48-2l-1-4,42-64h166Z"/>
    <path class="cls-2" d="M417.66,131.04l-23,52h96c16.15,35.71,91,41.45,98-3h-2l-92-16c-31.61-7.72-52.71-21.33-77-33Z"/>
  </g>
</svg>